# AST/ASF file generated using VICON BodyLanguage
# -----------------------------------------------
:version 1.10
:name VICON
:units
  mass 1.0
  length 0.45
  angle deg
:documentation
   .ast/.asf automatically generated from VICON data using
   VICON BodyBuilder and BodyLanguage model FoxedUp or BRILLIANT.MOD
:root
   order TX TY TZ RX RY RZ
   axis XYZ
   position 0 0 0  
   orientation 0 0 0 
:bonedata
  begin
     id 1 
     name lhipjoint
     direction 0.62366 -0.717238 0.310833 
     length 2.53602 
     axis 0 0 0  XYZ
  end
  begin
     id 2 
     name lfemur
     direction 0.34202 -0.939693 0  
     length 7.40817  
     axis 0 0 20  XYZ
    dof rx ry rz
    limits (-160.0 20.0)
           (-70.0 70.0)
           (-60.0 70.0)
  end
  begin
     id 3 
     name ltibia
     direction 0.34202 -0.939693 0   
     length 7.7045   
     axis 0 0 20   XYZ
    dof rx
    limits (-10.0 170.0)
  end
  begin
     id 4 
     name lfoot
     direction 0.0673888 -0.185149 0.980397   
     length 2.09456   
     axis -90 7.62852e-016 20   XYZ
    dof rx rz
    limits (-45.0 90.0)
           (-70.0 20.0)
  end
  begin
     id 5 
     name ltoes
     direction 1.53575e-011 -4.21994e-011 1   
     length 1.05543   
     axis -90 7.62852e-016 20   XYZ
    dof rx
    limits (-90.0 20.0)
  end
  begin
     id 6 
     name rhipjoint
     direction -0.489018 -0.800347 0.346851   
     length 2.27268  
     axis 0 0 0  XYZ 
  end
  begin
     id 7 
     name rfemur
     direction -0.34202 -0.939693 0   
     length 7.55487   
     axis 0 0 -20   XYZ
    dof rx ry rz
    limits (-160.0 20.0)
           (-70.0 70.0)
           (-70.0 60.0)
  end
  begin
     id 8 
     name rtibia
     direction -0.34202 -0.939693 0   
     length 7.78969   
     axis 0 0 -20   XYZ
    dof rx
    limits (-10.0 170.0)
 end
 begin
     id 9 
     name rfoot
     direction -0.0859318 -0.236096 0.967923   
     length 2.19143  
     axis -90 -7.62852e-016 -20   XYZ
    dof rx rz
    limits (-45.0 90.0)
           (-20.0 70.0)
  end
  begin
     id 10 
     name rtoes
     direction -1.53538e-011 -4.21989e-011 1   
     length 1.09845   
     axis -90 -7.62852e-016 -20   XYZ
    dof rx
    limits (-90.0 20.0)
  end
  begin
     id 11 
     name lowerback
     direction -0.00762546 0.998978 -0.0445553   
     length 1.98161   
     axis 0 0 0   XYZ
    dof rx ry rz
    limits (-20.0 45.0)
           (-30.0 30.0)
           (-30.0 30.0)
  end
  begin
     id 12 
     name upperback
     direction 0.0422361 0.998867 -0.0219156   
     length 1.97558   
     axis 0 0 0   XYZ
    dof rx ry rz
    limits (-20.0 45.0)
           (-30.0 30.0)
           (-30.0 30.0)
  end
  begin
     id 13 
     name thorax
     direction 0.0442465 0.999021 7.47603e-005   
     length 1.97799   
     axis 0 0 0   XYZ
    dof rx ry rz
    limits (-20.0 45.0)
           (-30.0 30.0)
           (-30.0 30.0)
  end
  begin
     id 14 
     name lowerneck
     direction 0.00312169 0.984641 0.174564   
     length 1.78995   
     axis 0 0 0   XYZ
    dof rx ry rz
    limits (-20.0 45.0)
           (-30.0 30.0)
           (-30.0 30.0)
  end
  begin
     id 15 
     name upperneck
     direction -0.0383028 0.985255 -0.166749   
     length 1.83053   
     axis 0 0 0   XYZ
    dof rx ry rz
    limits (-20.0 45.0)
           (-30.0 30.0)
           (-30.0 30.0)
  end
  begin
     id 16
     name head
     direction -0.0129546 0.997059 -0.0755386  
     length 1.84088  
     axis 0 0 0   XYZ
    dof rx ry rz
    limits (-20.0 45.0)
           (-30.0 30.0)
           (-30.0 30.0)
  end
  begin
     id 17 
     name lclavicle
     direction 0.912857 0.370519 -0.171488  
     length 3.51279  
     axis 0 0 0   XYZ
    dof ry rz
    limits (-20.0 10.0)
           (0.0 20.0)
  end
  begin
     id 18 
     name lhumerus
     direction 1 -4.48962e-011 3.64361e-027   
     length 4.95663   
     axis 180 -30 -90   XYZ
    dof rx ry rz
    limits (-60.0 90.0)
           (-90.0 90.0)
           (-90.0 90.0)
  end
  begin
     id 19
     name lradius
     direction 1 -4.48974e-011 5.97202e-027   
     length 3.38177   
     axis 180 -30 -90   XYZ
    dof rx
    limits (-10.0 170.0)
  end
  begin
     id 20
     name lwrist
     direction 1 -4.4896e-011 9.83288e-027   
     length 1.69088   
     axis -9.31221e-015 90 90   XYZ
    dof ry
    limits (-180.0 0.0)
 end
  begin
     id 21 
     name lhand
     direction 1 -4.4902e-011 1.96551e-026   
     length 0.662909   
     axis -1.25475e-014 90 90   XYZ
    dof rx rz
    limits (-90.0 90.0)
           (-45.0 45.0)
  end
  begin
     id 22 
     name lfingers
     direction 1 -4.48971e-011 3.93277e-026   
     length 0.534454   
     axis -2.50945e-014 90 90   XYZ
    dof rx
    limits (0.0 90.0)
  end
  begin
     id 23
     name lthumb
     direction 0.707107 -6.34933e-011 0.707107   
     length 0.767373   
     axis -90 45 -4.80359e-014   XYZ
    dof rx rz
    limits (-45.0 45.0)
           (-45.0 45.0)
  end
  begin
     id 24 
     name rclavicle
     direction -0.900919 0.395364 -0.178976   
     length 3.40627  
     axis 0 0 0   XYZ 
    dof ry rz
    limits (-10.0 20.0)
           (-20.0 0.0)
  end
  begin
     id 25 
     name rhumerus
     direction -1 -4.48969e-011 1.03875e-027  
     length 5.08365   
     axis 180 30 90   XYZ
    dof rx ry rz
    limits (-90.0 60.0)
           (-90.0 90.0)
           (-90.0 90.0)
  end
  begin
     id 26 
     name rradius
     direction -1 -4.48951e-011 5.02733e-027   
     length 3.35984   
     axis 180 30 90   XYZ
    dof rx
    limits (-10.0 170.0)
  end
  begin
     id 27 
     name rwrist
     direction -1 -4.49011e-011 9.82828e-027   
     length 1.67992   
     axis -9.31221e-015 -90 -90   XYZ
    dof ry
    limits (-180.0 0.0)
  end
  begin
     id 28
     name rhand
     direction -1 -4.48894e-011 1.96774e-026   
     length 0.820764   
     axis -1.25475e-014 -90 -90   XYZ
    dof rx rz
    limits (-90.0 90.0)
           (-45.0 45.0)
  end
  begin
     id 29
     name rfingers
     direction -1 -4.49095e-011 3.92833e-026   
     length 0.661721   
     axis -2.50945e-014 -90 -90   XYZ
    dof rx
    limits (0.0 90.0)
  end
  begin
     id 30
     name rthumb
     direction -0.707107 -6.34881e-011 0.707107   
     length 0.950103   
     axis -90 -45 4.80359e-014   XYZ
    dof rx rz
    limits (-45.0 45.0)
           (-45.0 45.0)
  end
:hierarchy
  begin
    root lhipjoint rhipjoint lowerback
    lhipjoint lfemur
    lfemur ltibia
    ltibia lfoot
    lfoot ltoes
    rhipjoint rfemur
    rfemur rtibia
    rtibia rfoot
    rfoot rtoes
    lowerback upperback
    upperback thorax
    thorax lowerneck lclavicle rclavicle
    lowerneck upperneck
    upperneck head
    lclavicle lhumerus
    lhumerus lradius
    lradius lwrist
    lwrist lhand lthumb
    lhand lfingers
    rclavicle rhumerus
    rhumerus rradius
    rradius rwrist
    rwrist rhand rthumb
    rhand rfingers
  end

#!OML:ASF I:\golf\golf\golf 2\Subject 1\2002-09-07\Subject1.ASF
:FULLY-SPECIFIED
:DEGREES
19
root -0.357923 18.1448 -9.42761 7.88344 -0.921204 -7.04169
lowerback -5.25883 0.740418 -0.378577
upperback -0.0123094 0.865911 4.91508
thorax 2.85871 0.394322 5.38391
lowerneck -15.6048 1.2451 1.0361
upperneck 40.9817 3.92333 -5.31374
head 18.0679 1.01545 -1.90721
rclavicle -9.98893e-015 1.31198e-014
rhumerus -27.3736 -0.173226 -84.7964
rradius 24.686
rwrist -7.11381
rhand -17.6396 9.55191
rfingers 7.12502
rthumb 8.61817 -20.2522
lclavicle -9.98893e-015 1.31198e-014
lhumerus -26.6959 -4.74101 92.833
lradius 27.0647
lwrist 6.04137
lhand -7.89697 34.8945
lfingers 7.12502
lthumb 18.008 64.0808
rfemur -16.9456 -0.56154 28.3783
rtibia 23.8332
rfoot -10.3447 -8.94819
rtoes 13.382
lfemur -13.6729 3.78344 -12.8051
ltibia 26.5749
lfoot -15.7646 4.15268
ltoes -10.0602
20
root -0.34946 18.1474 -9.42947 7.79664 -0.936078 -6.9662
lowerback -5.1661 0.751654 -0.502451
upperback 0.0309178 0.892385 4.79859
thorax 2.84858 0.406226 5.33215
lowerneck -15.6498 1.22248 1.09474
upperneck 41.0511 3.85876 -5.2829
head 18.1171 1.00128 -1.91875
rclavicle 1.71452e-014 4.77083e-014
rhumerus -27.3876 -0.316132 -85.036
rradius 24.6786
rwrist -6.99138
rhand -17.5523 9.44585
rfingers 7.12502
rthumb 8.70238 -20.3548
lclavicle 1.71452e-014 4.77083e-014
lhumerus -26.7238 -5.0974 92.6684
lradius 27.2123
lwrist 6.21368
lhand -7.87713 34.9982
lfingers 7.12502
lthumb 18.0271 64.1827
rfemur -16.8153 -0.666672 28.2743
rtibia 23.7836
rfoot -10.3073 -8.86453
rtoes 13.7071
lfemur -13.5217 3.75905 -12.9119
ltibia 26.4942
lfoot -15.7315 4.17437
ltoes -10.3023
21
root -0.340963 18.1482 -9.4325 7.74679 -1.00066 -7.01245
lowerback -5.04523 0.789324 -0.571506
upperback -0.0269863 0.95289 4.7593
thorax 2.71437 0.438788 5.33037
lowerneck -15.4747 1.19941 1.17557
upperneck 41.1091 3.81267 -5.32049
head 18.1044 0.992573 -1.96219
rclavicle 2.127e-014 -4.45278e-014
rhumerus -27.6125 -0.636491 -85.1317
rradius 24.7221
rwrist -6.6358
rhand -17.5294 9.53247
rfingers 7.12502
rthumb 8.72451 -20.2672
lclavicle 2.127e-014 -4.45278e-014
lhumerus -26.893 -5.21033 92.5508
lradius 27.2617
lwrist 6.1803
lhand -7.82997 35.2134
lfingers 7.12502
lthumb 18.0724 64.3938
rfemur -16.7405 -0.630217 28.2976
rtibia 23.7588
rfoot -10.252 -8.92096
rtoes 13.4747
lfemur -13.4003 3.82548 -12.8781
ltibia 26.3981
lfoot -15.728 4.08295
ltoes -9.73176
22
root -0.331291 18.1479 -9.43658 7.79207 -1.10125 -7.08434
lowerback -5.04736 0.797664 -0.678837
upperback -0.0513477 0.969989 4.8055
thorax 2.68622 0.44647 5.44136
lowerneck -15.3635 1.24914 1.17241
upperneck 41.1056 3.91409 -5.37318
head 18.0808 1.02712 -1.96667
rclavicle -5.96354e-015 1.55052e-014
rhumerus -27.718 -0.690399 -85.2027
rradius 24.7348
rwrist -6.45107
rhand -17.2193 9.18548
rfingers 7.12502
rthumb 9.0237 -20.6015
lclavicle -5.96354e-015 1.55052e-014
lhumerus -26.8727 -4.99426 92.474
lradius 27.2125
lwrist 5.99246
lhand -7.86209 35.4003
lfingers 7.12502
lthumb 18.0415 64.5836
rfemur -16.7918 -0.528696 28.3368
rtibia 23.7466
rfoot -10.2216 -8.98995
rtoes 13.011
lfemur -13.3569 3.80793 -12.8173
ltibia 26.299
lfoot -15.6886 4.00942
ltoes -8.46521
23
root -0.31993 18.1473 -9.44386 7.89552 -1.20054 -7.11574
lowerback -5.13776 0.76018 -0.834403
upperback 0.0276593 0.921879 4.89356
thorax 2.81992 0.416232 5.6241
lowerneck -15.5274 1.30956 1.00766
upperneck 41.0923 4.08462 -5.41073
head 18.1267 1.06087 -1.92138
rclavicle 2.48481e-016 3.65764e-014
rhumerus -27.5233 -0.265816 -85.3379
rradius 24.7131
rwrist -6.62866
rhand -16.7387 8.74494
rfingers 7.12502
rthumb 9.4875 -21.0215
lclavicle 2.48481e-016 3.65764e-014
lhumerus -26.5477 -4.61886 92.388
lradius 27.0618
lwrist 5.84036
lhand -7.9893 35.3556
lfingers 7.12502
lthumb 17.9191 64.5501
rfemur -16.9115 -0.417455 28.32
rtibia 23.7078
rfoot -10.1588 -9.00886
rtoes 12.8555
lfemur -13.4016 3.69089 -12.8204
ltibia 26.2482
lfoot -15.6654 4.10405
ltoes -8.01189
24
root -0.309227 18.1496 -9.451 7.89101 -1.27737 -7.14114
lowerback -5.17129 0.74874 -0.95786
upperback 0.135383 0.908344 4.93206
thorax 2.94942 0.403388 5.73778
lowerneck -15.6506 1.34024 0.912742
upperneck 41.0714 4.17003 -5.41767
head 18.1515 1.07669 -1.89025
rclavicle -3.37934e-015 -1.27222e-014
rhumerus -27.3848 0.0162928 -85.4946
rradius 24.829
rwrist -6.6342
rhand -17.0124 9.00446
rfingers 7.12502
rthumb 9.22337 -20.7738
lclavicle -3.37934e-015 -1.27222e-014
lhumerus -26.2726 -4.37946 92.264
lradius 26.8945
lwrist 5.76906
lhand -8.06834 35.2684
lfingers 7.12502
lthumb 17.8431 64.4698
rfemur -16.9065 -0.361673 28.2992
rtibia 23.6703
rfoot -10.1748 -8.99778
rtoes 14.0681
lfemur -13.3932 3.63287 -12.829
ltibia 26.2472
lfoot -15.7365 4.18786
ltoes -8.12117
25
root -0.301401 18.1531 -9.45442 7.82729 -1.2551 -7.13567
lowerback -4.99016 0.773533 -0.950998
upperback 0.042481 0.95175 4.78936
thorax 2.74893 0.431342 5.57931
lowerneck -15.4497 1.34555 1.07395
upperneck 41.1202 4.08905 -5.34114
head 18.1207 1.08306 -1.90089
rclavicle -1.41137e-014 -2.18663e-014
rhumerus -27.6584 -0.0623711 -85.8145
rradius 24.9181
rwrist -6.54443
rhand -17.5342 9.82147
rfingers 7.12502
rthumb 8.71987 -19.9784
lclavicle -1.41137e-014 -2.18663e-014
lhumerus -26.4811 -4.52442 92.018
lradius 26.8726
lwrist 5.76596
lhand -8.04939 35.4212
lfingers 7.12502
lthumb 17.8613 64.6209
rfemur -16.8107 -0.374342 28.2619
rtibia 23.6166
rfoot -10.254 -8.99795
rtoes 15.4904
lfemur -13.3613 3.58246 -12.8383
ltibia 26.2671
lfoot -15.7938 4.09094
ltoes -7.46946
